<svg width="28" height="28" viewBox="0 0 28 28" fill="none" xmlns="http://www.w3.org/2000/svg">
<path d="M6.354 10.764L14 19L21.689 10.725C21.8776 10.545 21.9885 10.2985 21.998 10.038C22.0075 9.77745 21.9149 9.5235 21.74 9.33025C21.565 9.137 21.3214 9.01973 21.0612 9.00343C20.801 8.98714 20.5447 9.0731 20.347 9.243L14 16L7.715 9.301C7.52525 9.11096 7.26854 9.00289 7 9C6.73478 9 6.48043 9.10536 6.29289 9.29289C6.10536 9.48043 6 9.73478 6 10C6 10.306 6.151 10.537 6.354 10.764Z" fill="black"/>
</svg>
