<svg width="120" height="17" viewBox="0 0 120 17" fill="none" xmlns="http://www.w3.org/2000/svg">
<path fill-rule="evenodd" clip-rule="evenodd" d="M88.9769 14.2146C87.8977 14.2146 87.37 13.5431 87.3715 12.8477C87.3715 11.9377 88.0485 11.4823 88.9023 11.3631L91.8108 10.9477V11.4746C91.81 13.5592 90.3823 14.2146 88.9769 14.2146ZM89.5615 4.70848C92.9031 4.70848 95.0292 6.36771 95.0292 9.62771V16.2531H91.9554L91.9677 14.9439C91.3523 15.8685 90.0315 16.5777 88.3969 16.5769C85.7623 16.5762 84.1577 14.8739 84.1585 13.0293C84.1585 10.9208 85.79 9.74694 87.8477 9.46002C87.8477 9.46002 91.2269 9.06002 91.7069 8.99463C91.7069 7.6031 90.4092 7.28771 89.1162 7.28771C87.7915 7.28771 86.7385 7.75002 85.9238 8.2954L84.7185 6.19771C85.9823 5.30387 87.6431 4.70848 89.5615 4.70848ZM18.1692 6.23925C19.0077 5.12463 20.2585 4.73002 21.5462 4.73002C24.2192 4.73002 26.1262 6.5054 26.1262 9.11617V16.2746H22.9554V10.09C22.9554 8.46694 22.1054 7.5731 20.6592 7.5731C19.2985 7.5731 18.1692 8.41925 18.1692 10.1139V16.2754H14.9977V0.423096H18.1692V6.23925ZM60.1385 9.1154V16.2739H56.98V10.0892C56.98 8.46617 56.1177 7.57233 54.6838 7.57233C53.3231 7.57233 52.1931 8.41848 52.1931 10.1131V16.2746H49.0231V10.09C49.0231 8.4654 48.1731 7.57233 46.7269 7.57233C45.3669 7.57233 44.2369 8.41848 44.2369 10.1131V16.2746H41.0662V5.03156H44.1515V6.35387C44.99 5.15925 46.2777 4.72925 47.6146 4.72925C49.3146 4.72925 50.7123 5.46002 51.5015 6.6554C52.4131 5.22848 53.9554 4.72925 55.4985 4.72925C58.2677 4.72925 60.1385 6.50463 60.1385 9.1154ZM74.3385 10.6462C74.3385 14.0231 71.8838 16.5639 68.64 16.5639C67.0123 16.5639 65.8823 15.9377 65.1169 15.0331V16.2739H62.0192V0.434634H65.1777V6.20386C65.9431 5.32233 67.0485 4.73002 68.6277 4.73002C71.8838 4.73002 74.3377 7.27156 74.3377 10.6477L74.3385 10.6462ZM65.0862 10.6462C65.0862 12.4223 66.3138 13.7446 68.1115 13.7446C69.9823 13.7446 71.1485 12.3639 71.1485 10.6469C71.1485 8.92925 69.9823 7.54925 68.1115 7.54925C66.3138 7.54925 65.0862 8.87233 65.0862 10.6469V10.6462ZM107.175 6.8531L104.89 8.67463C104.175 7.94387 103.408 7.54925 102.376 7.54925C100.736 7.54925 99.4239 8.77925 99.4239 10.6469C99.4239 12.5262 100.724 13.7446 102.364 13.7446C103.384 13.7446 104.259 13.3039 104.927 12.6077L107.187 14.4523C106.082 15.81 104.428 16.5639 102.462 16.5639C98.7069 16.5639 96.1923 14.0577 96.1923 10.6469C96.1923 7.24694 98.7069 4.72925 102.462 4.72925C104.428 4.72925 106.092 5.4954 107.175 6.85233V6.8531ZM119.35 5.03156L115.085 9.23387L120 16.2746H116.142L112.862 11.1846L111.428 12.6V16.2746H108.258V0.434634H111.428V9.21156L115.535 5.03233H119.351L119.35 5.03156ZM35.8708 15.0677C35.0323 16.1816 33.7815 16.5769 32.4938 16.5769C29.8208 16.5769 27.9138 14.8023 27.9138 12.1916V5.03233H31.0846V11.2162C31.0846 12.84 31.9346 13.7339 33.3808 13.7339C34.7415 13.7339 35.8708 12.8869 35.8708 11.1931V5.03079H39.0415V16.2739H35.8708V15.0677ZM74.7569 5.03233H76.4823V1.69079H79.6415V5.03233H83.1554V7.72463H79.6415V12.4808C79.6415 13.2677 80.2115 13.7454 80.8362 13.7454C81.4938 13.7454 82.3492 13.35 82.3492 13.35L83.3708 15.7585C83.3708 15.7585 82.2854 16.5523 79.86 16.5523C78.2562 16.5523 76.4823 15.3931 76.4823 13.1416V7.7231H74.7569V5.03079V5.03233ZM8.66154 4.72463V11.8662C8.66154 13.0969 8.32308 14.3069 7.67923 15.3739L6.96692 16.5523L6.25538 15.3731C5.61387 14.3154 5.27391 13.1024 5.27231 11.8654V6.23848C6.11385 5.12079 7.37 4.72463 8.66154 4.72463ZM0 3.45156V0.423096H13.9346V3.45156H0Z" fill="black"/>
</svg>
